<?xml version="1.0" standalone="no"?>
<!DOCTYPE svg PUBLIC "-//W3C//DTD SVG 20010904//EN"
 "http://www.w3.org/TR/2001/REC-SVG-20010904/DTD/svg10.dtd">
<svg version="1.0" xmlns="http://www.w3.org/2000/svg"
 width="220.000000pt" height="220.000000pt" viewBox="0 0 220.000000 220.000000"
 preserveAspectRatio="xMidYMid meet">
<metadata>
Created by potrace 1.14, written by Peter Selinger 2001-2017
</metadata>
<g transform="translate(0.000000,220.000000) scale(0.100000,-0.100000)"
fill="#000000" stroke="none">
<path d="M630 2127 c-19 -6 -37 -14 -40 -17 -3 -3 -20 -16 -38 -29 -34 -24
-62 -69 -70 -111 -2 -14 -5 -405 -6 -870 -1 -841 -1 -844 20 -890 73 -155 261
-183 377 -55 50 55 58 65 52 65 -3 0 0 10 7 22 6 13 14 30 15 38 6 25 4 540
-2 550 -11 17 18 22 153 25 158 4 223 19 324 78 135 80 231 205 293 382 18 51
27 252 14 300 -3 11 -9 38 -14 60 -16 81 -102 225 -177 297 -45 44 -157 118
-179 118 -5 0 -17 4 -27 10 -57 32 -123 38 -394 38 -162 0 -287 -5 -308 -11z
m568 -490 c57 -52 74 -155 37 -226 -16 -31 -55 -77 -55 -65 0 4 -6 2 -12 -4
-7 -5 -60 -9 -118 -8 l-105 1 0 155 c0 92 4 158 10 162 6 5 58 7 117 5 83 -2
111 -7 126 -20z"/>
</g>
</svg>
